<svg xmlns="http://www.w3.org/2000/svg" xmlns:xlink="http://www.w3.org/1999/xlink" version="1.1" x="0px" y="0px" viewBox="0 0 100 125" enable-background="new 0 0 100 100" xml:space="preserve"><path fill-rule="evenodd" clip-rule="evenodd" d="M74.726,34.389V16.144h-6.961v7.383h-7.082v-7.383h-7.041v7.383H46.56v-7.383  h-7.108v7.383h-7.082v-7.383h-7.095v18.245c0,5.168,3.049,9.636,7.434,11.729c-0.561,5.022-1.121,10.043-1.682,15.063  c-0.845,7.557-1.686,15.117-2.528,22.674c7.164,0,14.333,0,21.498,0c7.164,0,14.337,0,21.507,0  c-0.844-7.557-1.685-15.117-2.529-22.674c-0.561-5.018-1.123-10.041-1.685-15.062C71.675,44.027,74.726,39.559,74.726,34.389z   M55.156,65.807H44.844V55.34c0-2.756,2.247-5.002,5.003-5.002h0.308c2.755,0,5.002,2.247,5.002,5.002V65.807z"/><text x="0" y="115" fill="#000000" font-size="5px" font-weight="bold" font-family="'Helvetica Neue', Helvetica, Arial-Unicode, Arial, Sans-serif">Created by Nikita Kozin</text><text x="0" y="120" fill="#000000" font-size="5px" font-weight="bold" font-family="'Helvetica Neue', Helvetica, Arial-Unicode, Arial, Sans-serif">from the Noun Project</text></svg>