<svg xmlns="http://www.w3.org/2000/svg" xmlns:xlink="http://www.w3.org/1999/xlink" version="1.1" x="0px" y="0px" viewBox="0 0 100 125" enable-background="new 0 0 100 100" xml:space="preserve"><path d="M82.1,33.5v8h-4.7v-8h-6.9v8h-4V21.3h-8.4v7.9h-3.9v-7.9h-8.4v7.9h-3.6v-7.9h-8.5v20.2h-3v-7.9h-8.5v8h-3.5v-8.1h-8.5v15.8  l4.1,4.1v23.9h8V65.5c0-2.3,1.9-4.1,4.1-4.1c1.1,0,2.2,0.5,2.9,1.2c0.7,0.8,1.2,1.8,1.2,2.9v11.7h38.8V65.5c0-2.3,1.9-4.1,4.1-4.1  c1.1,0,2.2,0.5,2.9,1.2c0.7,0.8,1.2,1.8,1.2,2.9v11.7h8V53.9l4-4V33.5H82.1z M54.2,64.6h-8.2V52.9c0-2.3,1.9-4.1,4.1-4.1  c1.1,0,2.2,0.5,2.9,1.2c0.7,0.8,1.2,1.8,1.2,2.9V64.6z"/><text x="0" y="115" fill="#000000" font-size="5px" font-weight="bold" font-family="'Helvetica Neue', Helvetica, Arial-Unicode, Arial, Sans-serif">Created by Ahmed Elzahra</text><text x="0" y="120" fill="#000000" font-size="5px" font-weight="bold" font-family="'Helvetica Neue', Helvetica, Arial-Unicode, Arial, Sans-serif">from the Noun Project</text></svg>