<svg xmlns="http://www.w3.org/2000/svg" xmlns:xlink="http://www.w3.org/1999/xlink" version="1.1" x="0px" y="0px" viewBox="0 0 100 83.125" enable-background="new 0 0 100 66.5" xml:space="preserve"><path d="M30.484,44.305c1.472-0.689,2.895-1.115,4.287-1.354V6.226h-1.829v2.776H31.37V6.226h-2.2v2.776h-1.573V6.226h-2.201v2.776  h-1.572V6.226h-2.208v41.606h0.303C24.624,46.861,27.51,45.697,30.484,44.305z"/><path d="M82.619,43.271V6.226h-1.967v2.856h-1.571V6.226h-2.2v2.856h-1.572V6.226h-2.201v2.856h-1.572V6.226h-2.07v35.829  c1.178-0.127,2.383-0.197,3.607-0.197C76.451,41.857,79.675,42.363,82.619,43.271z"/><path d="M46.01,44.938v-4.04c0-3.954,2.733-7.157,6.102-7.157c3.371,0,6.103,3.203,6.103,7.157v4.613  c2.869-1.581,6.202-2.72,9.819-3.272V17.886h-3.146v2.853h-2.002v-2.853h-3.146v2.853h-2.001v-2.853h-3.721v2.853h-2v-2.853h-3.146  v2.853h-2.002v-2.853h-3.146v2.853h-2.002v-2.853h-3.146v2.853h-2.002v22.004C39.851,42.578,42.953,43.498,46.01,44.938z"/><path d="M94.943,52.646c-0.004-0.007-0.008-0.014-0.014-0.02c-0.033,0.018-0.724,0.361-0.104,0.049  c-2.742-3.641-7.067-6.535-12.286-8.146c-2.944-0.908-6.168-1.412-9.548-1.412c-1.227,0-2.432,0.068-3.608,0.195  c-0.479,0.053-0.959,0.111-1.431,0.184c-3.618,0.554-6.951,1.691-9.819,3.271c-1.81,0.998-3.425,2.18-4.817,3.496  c-0.002,0-0.004-0.002-0.006-0.003c-2.45-1.524-4.862-2.997-7.302-4.144c-3.057-1.439-6.159-2.36-9.437-2.197  c-0.595,0.031-1.196,0.104-1.802,0.209c-1.392,0.238-2.815,0.666-4.287,1.354c-2.975,1.395-5.861,2.557-8.566,3.527  C11.79,52.646,4.211,53.564,4.115,53.576l0.324,2.812c0.487-0.057,11.519-1.385,25.116-7.377c0.705-0.311,1.414-0.63,2.13-0.967  c1.049-0.49,2.074-0.813,3.085-1.022c0.605-0.125,1.206-0.205,1.802-0.239c2.972-0.174,5.835,0.717,8.752,2.146  c1.975,0.968,3.98,2.179,6.059,3.467c0.307,0.188,0.609,0.377,0.919,0.568c0.288,0.18,0.581,0.36,0.873,0.543  c0.161,0.1,0.32,0.198,0.483,0.299c0.04,0.024,0.078,0.05,0.119,0.074c5.771,3.563,12.305,7.261,20.457,7.62  c0.365-0.004,8.537-0.118,19.683-5.243c0.026-0.013,0.058-0.028,0.086-0.042c0.119-0.055,0.244-0.119,0.365-0.176  c0.606-0.285,1.218-0.573,1.841-0.89L94.943,52.646z M74.29,58.67c-7.175-0.317-12.983-3.488-18.501-6.875  c0.054-0.047,0.111-0.09,0.164-0.137c1.16-0.99,2.475-1.889,3.938-2.652c0.907-0.475,1.883-0.885,2.889-1.258  c1.621-0.603,3.349-1.084,5.176-1.387c0.025-0.005,0.053-0.008,0.078-0.013c0.445-0.072,0.896-0.14,1.354-0.19  c0.024-0.004,0.051-0.004,0.078-0.008c1.149-0.133,2.327-0.205,3.529-0.205c3.416,0,6.652,0.555,9.548,1.54  c0.026,0.009,0.051,0.021,0.078,0.029c3.95,1.36,7.239,3.537,9.469,6.215c0.05,0.058,0.103,0.112,0.149,0.171  C81.921,58.529,74.305,58.668,74.29,58.67z"/><text x="0" y="81.5" fill="#000000" font-size="5px" font-weight="bold" font-family="'Helvetica Neue', Helvetica, Arial-Unicode, Arial, Sans-serif">Created by Les vieux garçons</text><text x="0" y="86.5" fill="#000000" font-size="5px" font-weight="bold" font-family="'Helvetica Neue', Helvetica, Arial-Unicode, Arial, Sans-serif">from the Noun Project</text></svg>